<svg width="328" height="380" fill="none" xmlns="http://www.w3.org/2000/svg"><mask id="a" fill="#fff"><path fill-rule="evenodd" clip-rule="evenodd" d="M7 14a7 7 0 0 1 7-7h140l10 6.882L174 7h140a7 7 0 0 1 7 7v352a7 7 0 0 1-7 7H174l-10-6.882L154 373H14a7 7 0 0 1-7-7V14Z"/></mask><path d="m154 7 .85-1.236-.384-.264H154V7Zm10 6.882-.85 1.236.85.585.85-.585-.85-1.236ZM174 7V5.5h-.466l-.384.264L174 7Zm0 366-.85 1.236.384.264H174V373Zm-10-6.882.85-1.236-.85-.585-.85.585.85 1.236ZM154 373v1.5h.466l.384-.264L154 373ZM14 5.5A8.5 8.5 0 0 0 5.5 14h3A5.5 5.5 0 0 1 14 8.5v-3Zm140 0H14v3h140v-3Zm10.85 7.146-10-6.882-1.7 2.472 10 6.882 1.7-2.472Zm8.3-6.882-10 6.882 1.7 2.472 10-6.882-1.7-2.472ZM314 5.5H174v3h140v-3Zm8.5 8.5a8.5 8.5 0 0 0-8.5-8.5v3a5.5 5.5 0 0 1 5.5 5.5h3Zm0 352V14h-3v352h3Zm-8.5 8.5a8.5 8.5 0 0 0 8.5-8.5h-3a5.5 5.5 0 0 1-5.5 5.5v3Zm-140 0h140v-3H174v3Zm-10.85-7.146 10 6.882 1.7-2.472-10-6.882-1.7 2.472Zm-8.3 6.882 10-6.882-1.7-2.472-10 6.882 1.7 2.472ZM14 374.5h140v-3H14v3ZM5.5 366a8.5 8.5 0 0 0 8.5 8.5v-3a5.5 5.5 0 0 1-5.5-5.5h-3Zm0-352v352h3V14h-3Z" fill="#105247" mask="url(#a)"/><mask id="b" fill="#fff"><path fill-rule="evenodd" clip-rule="evenodd" d="M328 16.748A11.946 11.946 0 0 1 321 19c-6.627 0-12-5.373-12-12 0-2.612.835-5.03 2.252-7H16.748A11.946 11.946 0 0 1 19 7c0 6.627-5.373 12-12 12-2.612 0-5.03-.835-7-2.252v346.504A11.948 11.948 0 0 1 7 361c6.627 0 12 5.373 12 12 0 2.612-.835 5.03-2.252 7h294.504a11.948 11.948 0 0 1-2.252-7c0-6.627 5.373-12 12-12 2.612 0 5.03.835 7 2.252V16.748Z"/></mask><path d="M328 16.748h1.5V13.82l-2.376 1.71.876 1.217ZM311.252 0l1.218.876 1.709-2.376h-2.927V0ZM16.748 0v-1.5H13.82L15.53.876 16.747 0ZM0 16.748l.876-1.218-2.376-1.709v2.927H0Zm0 346.504h-1.5v2.927l2.376-1.709L0 363.252ZM16.748 380l-1.218-.876-1.709 2.376h2.927V380Zm294.504 0v1.5h2.927l-1.709-2.376-1.218.876ZM328 363.252l-.876 1.218 2.376 1.709v-2.927H328ZM321 20.5c2.937 0 5.659-.94 7.876-2.534l-1.752-2.436A10.446 10.446 0 0 1 321 17.5v3ZM307.5 7c0 7.456 6.044 13.5 13.5 13.5v-3c-5.799 0-10.5-4.701-10.5-10.5h-3Zm2.534-7.876A13.45 13.45 0 0 0 307.5 7h3c0-2.288.73-4.4 1.97-6.124l-2.436-1.752ZM16.748 1.5h294.504v-3H16.748v3ZM20.5 7c0-2.937-.94-5.659-2.534-7.876L15.53.876A10.445 10.445 0 0 1 17.5 7h3ZM7 20.5c7.456 0 13.5-6.044 13.5-13.5h-3c0 5.799-4.701 10.5-10.5 10.5v3Zm-7.876-2.534A13.445 13.445 0 0 0 7 20.5v-3c-2.288 0-4.4-.73-6.124-1.97l-1.752 2.436ZM1.5 363.252V16.748h-3v346.504h3Zm-.624 1.218A10.445 10.445 0 0 1 7 362.5v-3c-2.937 0-5.659.94-7.876 2.534l1.752 2.436ZM7 362.5c5.799 0 10.5 4.701 10.5 10.5h3c0-7.456-6.044-13.5-13.5-13.5v3ZM17.5 373c0 2.288-.73 4.4-1.97 6.124l2.436 1.752A13.446 13.446 0 0 0 20.5 373h-3Zm293.752 5.5H16.748v3h294.504v-3ZM307.5 373c0 2.937.94 5.659 2.534 7.876l2.436-1.752A10.445 10.445 0 0 1 310.5 373h-3Zm13.5-13.5c-7.456 0-13.5 6.044-13.5 13.5h3c0-5.799 4.701-10.5 10.5-10.5v-3Zm7.876 2.534A13.451 13.451 0 0 0 321 359.5v3c2.288 0 4.4.73 6.124 1.97l1.752-2.436ZM326.5 16.748v346.504h3V16.748h-3Z" fill="#105247" mask="url(#b)"/></svg>